<svg width="53" height="35" viewBox="0 0 53 35" fill="none" xmlns="http://www.w3.org/2000/svg">
<path d="M0.265625 20.2872C0.414211 19.7031 0.565066 19.1201 0.709115 18.5348C1.32917 16.1007 2.64172 13.8987 4.48777 12.1953C6.33381 10.492 8.63416 9.36054 11.1102 8.93793C11.5677 8.82879 11.9669 8.55036 12.2274 8.1587C13.717 5.55432 15.9116 3.42335 18.5586 2.01094C21.2056 0.598528 24.1976 -0.0379447 27.1904 0.174742C30.5317 0.349583 33.7342 1.56755 36.3472 3.6573C38.9603 5.74705 40.8524 8.60342 41.7575 11.8246C41.8213 12.2598 42.0375 12.6582 42.3675 12.949C42.6976 13.2398 43.12 13.404 43.5598 13.4125C45.6473 13.816 47.5654 14.8371 49.0656 16.3436C50.5658 17.8501 51.5789 19.7724 51.9737 21.8615C52.0338 22.1125 52.1096 22.3595 52.2005 22.6011V25.1406C52.1172 25.3054 52.0511 25.4784 52.0031 25.6567C51.6398 28.1309 50.4056 30.3943 48.5224 32.0398C46.6393 33.6853 44.2309 34.6049 41.7303 34.6332C32.093 34.7148 22.4549 34.7148 12.8161 34.6332C9.98867 34.5901 7.25734 33.6004 5.05868 31.8222C2.86002 30.044 1.32098 27.5801 0.687565 24.8242C0.542381 24.2367 0.406272 23.6468 0.265625 23.057V20.2872ZM38.5861 17.1941C38.4262 16.4081 38.2538 15.5914 38.0973 14.7725C36.988 8.96629 33.2314 5.29246 27.5295 4.44291C22.785 3.73628 17.9077 6.42217 15.4725 11.3425C15.2141 11.9007 14.7942 12.3685 14.267 12.6854C13.7398 13.0023 13.1296 13.1536 12.5155 13.1199C10.4687 13.2676 8.54391 14.1489 7.09472 15.6018C5.64552 17.0548 4.76923 18.9818 4.6268 21.029C4.40789 25.7202 7.20948 29.5574 11.7158 30.1982C14.4297 30.4602 17.1582 30.536 19.8824 30.4251C26.9957 30.4493 34.1089 30.4493 41.2221 30.4251C42.912 30.4588 44.5486 29.8335 45.7854 28.6816C47.0222 27.5297 47.7621 25.9416 47.8484 24.2537C47.9055 23.4086 47.7926 22.5606 47.5165 21.7599C47.2405 20.9591 46.8068 20.2218 46.241 19.5915C45.6752 18.9611 44.9889 18.4505 44.2226 18.0898C43.4562 17.7291 42.6254 17.5256 41.779 17.4913C40.748 17.4039 39.7193 17.3007 38.5827 17.1941" fill="#2A364E"/>
<path d="M26.3385 11.3766L34.4744 19.5261H29.3896V25.9698H23.1512V19.618H17.9417L26.3351 11.3811" fill="#2A364E"/>
</svg>
